<svg xmlns="http://www.w3.org/2000/svg" xmlns:xlink="http://www.w3.org/1999/xlink" width="60" height="61" viewBox="0 0 60 61"><defs><path id="hpbra" d="M842.568 1784.905c-3.714 7.1-9.97 12.327-17.614 14.72a29.696 29.696 0 0 1-8.9 1.362c-3.568 0-7.09-.638-10.402-1.856-4.166 1.91-7.841 2.869-10.864 2.869-2.71 0-4.896-.771-6.443-2.318-5.54-5.54-.799-19.478 11.529-33.895l1.544 1.32c-11.24 13.145-16.242 26.531-11.636 31.138 2.37 2.37 7.14 2.274 13.277-.207a29.887 29.887 0 0 1-12.226-10.715l1.705-1.106c6.802 10.489 19.879 15.205 31.81 11.47 7.127-2.231 12.959-7.105 16.42-13.724 2.368-4.526 3.433-9.497 3.157-14.467h-4.063c-.364 0-.701-.196-.882-.513l-3.771-6.6h-4.963l-1.73 2.596a1.017 1.017 0 0 1-.846.452h-4.063a1.016 1.016 0 0 1-1.016-1.016v-7.113c0-.561.454-1.016 1.016-1.016h5.675l3.766-3.767c.19-.191.448-.298.718-.298h2.966a27.981 27.981 0 0 0-7.775-5.999 27.958 27.958 0 0 0-9.413-2.975v.845c0 .467-.318.873-.77.986l-3.895.973-2.901 1.935a1.016 1.016 0 0 1-1.017.064l-5.725-2.863c-5.972 2.485-10.693 6.878-13.667 12.232.162.085.3.214.398.376l3.048 5.08c.24.4.176.912-.153 1.242l-2.75 2.75v3.645c0 .56-.455 1.016-1.016 1.016h-3.058a27.887 27.887 0 0 0 1.274 7.825l-1.94.608c-4.939-15.785 3.882-32.647 19.664-37.588 15.785-4.94 32.64 3.882 37.58 19.666 2.393 7.647 1.667 15.767-2.048 22.866zm.11-22.258a27.998 27.998 0 0 0-4.273-8.393h-4.218l-3.766 3.766c-.191.191-.448.298-.719.298h-5.08v5.08h2.505l1.73-2.596c.189-.282.506-.452.845-.452h6.096c.364 0 .701.195.882.512l3.771 6.601h3.286a28.308 28.308 0 0 0-1.059-4.816zm-42.15-10.295l-.557.557 7.156 3.182 1.352-1.352zm-2.734 1.814a1.016 1.016 0 0 1-.306-1.647l2.032-2.032a1.015 1.015 0 0 1 1.01-.255l9.581 2.875 2.497-2.497a8.315 8.315 0 0 1 5.918-2.452h.002c.561 0 1.016.455 1.016 1.016.002 2.255-.82 4.31-2.314 5.873l-2.623 2.598 2.861 9.662c.112.38-.005.79-.302 1.05l-2.153 1.901a1.014 1.014 0 0 1-1.606-.36l-3.342-7.755-1.587 1.572.876 3.503c.086.346-.015.712-.267.965l-2.032 2.032a1.024 1.024 0 0 1-.844.29 1.015 1.015 0 0 1-.746-.486l-2.918-4.863-4.862-2.919a1.017 1.017 0 0 1-.196-1.589l2.032-2.032c.253-.253.62-.354.966-.267l3.506.877 1.595-1.596zm17.986-.543a6.267 6.267 0 0 0 1.65-3.34 6.282 6.282 0 0 0-3.386 1.763l-9.022 9.023a1.016 1.016 0 0 1-.965.267l-3.506-.877-.705.705 3.964 2.38c.143.084.262.204.348.348l2.379 3.965.705-.706-.877-3.506a1.017 1.017 0 0 1 .271-.969zm-1.061 14.184l.617-.545-2.368-7.994-1.352 1.34zm24.973 9.365l-3.893 5.84v3.757c0 .27-.107.528-.298.718l-4.064 4.065c-.192.192-.45.299-.719.299h-5.08a1.015 1.015 0 0 1-1.016-1.016v-11.178h-3.047a1.015 1.015 0 0 1-1.016-1.016v-8.13c0-.56.454-1.015 1.016-1.015h10.16c.384 0 .736.217.908.561l2.768 5.535h3.436a1.016 1.016 0 0 1 .845 1.58zm-2.744.453h-2.166c-.385 0-.737-.218-.91-.562l-2.767-5.535h-8.516v6.097h3.048c.562 0 1.016.454 1.016 1.016v11.177h3.645l3.468-3.469v-3.644c0-.2.06-.397.17-.564zm-20.453 1.016v5.08c0 .31-.14.601-.381.794l-4.699 3.759v2.56c0 .32-.15.621-.406.813l-4.064 3.049a1.011 1.011 0 0 1-1.064.096 1.017 1.017 0 0 1-.562-.91v-10.16h-4.063c-.561 0-1.016-.455-1.016-1.017v-7.113c0-.561.455-1.016 1.016-1.016h5.08c.269 0 .528.107.718.298l2.75 2.75h5.675c.56 0 1.016.455 1.016 1.017zm-2.032 4.593v-3.577h-5.08c-.269 0-.528-.107-.718-.298l-2.75-2.75h-3.643v5.08h4.063c.561 0 1.016.454 1.016 1.016v9.146l2.032-1.525v-2.54c0-.309.14-.6.381-.793zm-24.383-13.738v-3.049c0-.27.107-.528.298-.718l2.487-2.488-2.3-3.833a28.01 28.01 0 0 0-2.49 10.088zm21.263-23.527l2.557-1.705a1.03 1.03 0 0 1 .317-.14l3.295-.824v-.238a27.954 27.954 0 0 0-9.63 1.176z"/></defs><g><g transform="translate(-786 -1741)"><use fill="#d30512" xlink:href="#hpbra"/></g></g></svg>