<svg xmlns="http://www.w3.org/2000/svg" xmlns:xlink="http://www.w3.org/1999/xlink" width="68" height="68" viewBox="0 0 68 68"><defs><path id="2ejua" d="M1235.553 1798.786c-13.56.626-25.06-9.86-25.685-23.42h-3.437l-3.33 5.373a1.134 1.134 0 0 1-.964.536h-10a1.134 1.134 0 0 1-.962-1.73l3.272-5.277-3.272-5.274a1.133 1.133 0 0 1 .963-1.73h10c.392 0 .756.202.963.535l3.286 5.301h3.48c.586-12.683 10.736-22.833 23.42-23.419 13.56-.626 25.06 9.86 25.685 23.42.626 13.56-9.86 25.059-23.419 25.685zm-31.836-23.348h-7.331l-2.215 3.57h7.335zm.003-2.338l-2.214-3.57h-7.335l2.218 3.57zm53.04 1.105c-.015-12.323-10.018-22.3-22.341-22.284-11.87.02-21.648 9.325-22.255 21.18h4.63c.57-8.873 7.638-15.941 16.51-16.511 9.744-.626 18.15 6.766 18.776 16.51.626 9.744-6.766 18.151-16.51 18.777-9.744.626-18.15-6.766-18.777-16.51h-4.63c.604 11.879 10.42 21.196 22.314 21.18 12.323-.015 22.3-10.018 22.284-22.342zm-21.209.028c0 .626-.507 1.134-1.133 1.134h-1.16l.032.033a1.626 1.626 0 1 0-.033-2.3h1.16c.627 0 1.134.508 1.134 1.133zm-4.832 1.134h-4.738a8.52 8.52 0 1 0 0-2.267h4.738a3.892 3.892 0 1 1 0 2.267zm-7.027 0h-4.632a15.413 15.413 0 0 0 14.238 14.238c8.49.626 15.879-5.749 16.505-14.238.626-8.49-5.749-15.88-14.238-16.505-8.49-.626-15.88 5.748-16.505 14.238h4.632a10.787 10.787 0 0 1 9.594-9.594c5.925-.626 11.235 3.67 11.86 9.594.627 5.925-3.669 11.235-9.593 11.86-5.925.627-11.235-3.669-11.861-9.593zM1202.331 1740h9.067v2.267h-9.067zm9.067 7.933h9.066v2.267h-9.066zm-13.6-7.933h2.266v2.267h-2.266zm-2.267 21.533h9.067v2.267h-9.067zm-4.533 0h2.266v2.267h-2.266zm9.066 24.934h6.8v2.266h-6.8zm-4.533 0h2.267v2.266h-2.267zm18.133 10.2h2.267v2.266h-2.267zm-18.133 9.066h9.067V1808h-9.067zm-4.533 0h2.266V1808h-2.266z"/></defs><g><g transform="translate(-1191 -1740)"><use fill="#d50610" xlink:href="#2ejua"/></g></g></svg>