<svg xmlns="http://www.w3.org/2000/svg" xmlns:xlink="http://www.w3.org/1999/xlink" width="95" height="50" viewBox="0 0 95 50"><defs><path id="21r4a" d="M468.869 1750.831c.464-.28.93-.556 1.398-.831.178.236.359.47.535.709a30.61 30.61 0 0 0-.354.252l.386.28-.284.37c.241.046.482.094.725.142.05.12.103.24.156.36.206-.036.412-.075.619-.112l.018.677a61.174 61.174 0 0 1-.437-.065c.059.08.118.161.18.242-.334.255-.666.51-.999.767-.188.192-.466.056-.698.065-.19-.027-.3.174-.44.266.088.384.013.767-.199 1.096-.135-.12-.256-.254-.38-.383-.069.063-.137.126-.204.19-.117-.102-.23-.208-.351-.303-.085.124-.08.29-.128.43.092.116.187.23.284.345.174-.07.349-.138.524-.206l.009.36c.144-.081.3-.053.452-.007.033.395.094.788.107 1.184a1.765 1.765 0 0 1-.197.43c-.145.115-.34.14-.51.207v.51l.338.022c.02-.143.042-.287.065-.43.186-.016.376-.021.562-.058.108-.097.19-.22.285-.33.7.068 1.4.125 2.1.178.068.2.13.402.193.603-.351.252-.714.488-1.058.75l.403.22c.129 1.375.24 2.75.375 4.124.118.43.33.831.482 1.25-.285.019-.577-.018-.857.037-.182.147-.33.33-.493.497l-.017 1.605c-.206-.165-.411-.33-.62-.491.087.38.19.757.274 1.138l-.433.09c-.007.263-.12.552.031.793.316.636.633 1.272.947 1.91l.241.021c.015-.116.032-.232.049-.347.205-.005.412-.005.619-.002.115.234.141.55.384.694.106.073.217.144.327.216l.321-.175c.219.207.448.404.648.632-.146.113-.305.207-.456.309-.1-.129-.194-.269-.344-.34.199.478.49.908.729 1.366.25.075.501.149.753.22l.115.474-.381.422c-.006.225-.01.45-.014.674.305.353.609.709.911 1.064-.1.081-.196.163-.293.245-.005.242-.06.489-.018.728.145.18.34.317.474.509.27.768.212 1.595.329 2.391a1.81 1.81 0 0 0-.091.103c.124.08.242.173.36.264a1.3 1.3 0 0 1-.241.225 1.748 1.748 0 0 1-.327-.138.546.546 0 0 1 .158-.316c.004-.069.01-.138.013-.206-1.342-.844-2.632-1.774-3.957-2.648-.451-.263-.733-.718-1.087-1.089-.228-.277-.493-.523-.697-.819-.062-.293-.027-.603-.107-.892-.145-.205-.323-.383-.48-.577.065-.091.133-.18.2-.27-.039-.118-.078-.236-.114-.354l.343-.381c-.2-.612-.387-1.23-.498-1.866-.056-.47-.046-.945-.106-1.414-.067-.184-.184-.343-.278-.514.082-.405.166-.81.238-1.218l-.254-.056c.005-.136.014-.273.023-.408-.3-.019-.524-.227-.757-.392-.21-.125-.168-.407-.228-.612.102-.153.202-.309.295-.469-.18.06-.36.124-.539.188-.056.185-.111.37-.17.555.263.332.535.656.81.978-.111.111-.223.22-.331.333.127.525.275 1.067.193 1.612a36.67 36.67 0 0 0-.55.085c-.206-.287-.413-.574-.62-.858-.044.13-.086.261-.127.392l-.35.028c-.167.265-.37.507-.522.782a2.751 2.751 0 0 0-.098.666c.063.388.266.742.292 1.137.031.477.052.956.084 1.434l.28.264.31-.4c.16.113.317.23.477.345-.129.176-.248.36-.398.518-.135.09-.294.132-.442.194-.045.283-.065.572-.126.852-.153.237-.365.428-.543.645a64.692 64.692 0 0 1-.43-.373c.105-.154.21-.308.312-.464l-.326.01c-.174.148-.333.314-.52.444-.206.107-.437.154-.653.23.042.267.084.535.118.804-.526.054-.862.508-1.31.742.088.148.082.313.05.477a35.518 35.518 0 0 1-.531-.102c-.517.496-1.018 1.009-1.533 1.507.03.243.093.485.09.731-.06.223-.155.433-.232.65.057.242.134.48.172.729-.032.354-.175.69-.215 1.044-.06.545-.106 1.091-.164 1.637-.173.865-.783 1.615-.788 2.517.17.022.34.067.514.057.25-.124.475-.291.715-.431l.313.918c.123-.154.245-.312.366-.469.104.13.209.259.316.387.093-.368.153-.744.259-1.109.26-.193.568-.307.85-.468.553.104 1.127.157 1.632.43l-.22.43c.176.264.482.357.76.469-.15-.333-.265-.685-.45-.998-.15-.142-.324-.253-.488-.374.028-.152.058-.304.088-.454.124.009.268.076.373-.029-.095-.392-.465-.598-.773-.805.022-.125.047-.249.072-.373.118-.053.237-.107.358-.159.187.235.344.504.599.673.228.172.487.309.697.507.235.365.396.775.624 1.146.176.228.415.396.621.594.333.289.634.616 1.003.86.623.423 1.248.845 1.869 1.273-.491.052-1.038-.052-1.445.296.182.523.361 1.049.587 1.555.443.401 1.001.76 1.624.682.139.301.284.6.424.9-.181-.085-.358-.178-.54-.261-.18.051-.368.07-.552.09.09.403.035.813.006 1.22-.322-.431-.8-.814-.756-1.41-.183-.091-.366-.179-.55-.262-.098-.25-.164-.513-.277-.756-.139-.182-.377-.264-.498-.463-.397-.624-.737-1.287-1.212-1.858-.218-.261-.263-.614-.414-.91-.223-.176-.493-.278-.733-.424.195.458.239.96.352 1.443.047.291.325.46.427.732.31.686.7 1.338.946 2.053.097.226.041.473.029.71-.031.459-.085.916-.097 1.376.043.544.15 1.082.201 1.625-.02.3-.122.586-.183.878-.213.767-.198 1.571-.29 2.357-.057.384.004.804-.201 1.15-.132.242-.23.505-.385.733-.254.25-.55.452-.819.684-.373-.006-.747-.012-1.12-.015-.24.235-.483.466-.722.699-.03-.19.002-.4-.072-.578-.372-.422-.78-.81-1.165-1.22.15-.334.3-.67.456-1.001.396-.037.796-.052 1.19-.111-.084-.218-.284-.402-.261-.65.011-.49.034-.98.05-1.47.033-.347-.172-.65-.245-.978.003-.176.088-.338.137-.503-.124-.228-.26-.448-.398-.667-.472.15-.735.592-1.06.934-.166.16-.17.409-.293.593-.353.196-.725.353-1.082.538-.43-.308-.741-.734-.985-1.201-.323.06-.631-.049-.93-.155-.108.053-.213.106-.318.16l-.426-.207c-.24.092-.478.189-.714.29-1.064-1.102-2.12-2.213-3.213-3.287-.32.042-.635.115-.956.143-.29-.042-.554-.24-.844-.242-.531.255-1.062.521-1.535.878-.33.175-.426.561-.606.862l.534.054c.106.277.21.555.308.835-.147.16-.347.288-.436.492-.086.426-.14.862-.212 1.292-.059.283.136.531.218.791-.193.138-.403.255-.575.42-.11.207-.168.437-.248.656-.558-.083-1.113-.178-1.67-.266-.134.122-.263.252-.406.362-.113-.08-.212-.177-.315-.27-.285.016-.572.012-.854.05-.204.134-.368.32-.548.484-.171.148-.193.388-.269.59-.195.015-.409-.019-.581.093-.42.25-.833.513-1.254.76-.697-.07-1.394-.126-2.09-.198-.083-.163-.158-.33-.26-.48-.239-.048-.485-.033-.727-.048l-.184-.326c-.208.013-.414.035-.622.037-.264-.004-.5-.185-.762-.182-.292.14-.546.351-.84.486-.213.04-.433.035-.648.023-.328-.125-.623-.325-.938-.478-.084-.321-.165-.643-.248-.965-.391-.096-.787-.172-1.176-.28-.44-.159-.867-.351-1.302-.522-.036.124-.07.248-.105.373-.103.003-.206.007-.308.012-.007.106-.015.213-.02.32a12.12 12.12 0 0 0-.248.08c-.013.219-.027.439-.037.658.135.157.268.319.394.485-.127.257-.173.575-.41.76-.16.158-.377.225-.58.3-.116-.087-.21-.224-.359-.246-.49-.088-.992-.096-1.482-.187-.153-.059-.318-.122-.433-.24-.04-.145-.055-.296-.078-.444-.31-.075-.624-.132-.933-.208-.119-.017-.183-.127-.263-.202-.289.02-.59.002-.86.118-.538.21-1.078.412-1.618.615-.273.09-.468.315-.712.455-.239.041-.482.018-.72.052-.075.117-.126.248-.183.374-.208-.026-.42-.03-.623-.083-.219-.253-.404-.545-.485-.874-.173.09-.346.182-.516.278-.16-.28-.465-.34-.756-.387l-.018-.546a17.646 17.646 0 0 1-.499-.291c-.022-.464-.102-1.101-.62-1.253-.217.081-.429.178-.652.238-.33-.108-.616-.325-.926-.482-.053-.182-.01-.466-.259-.49-.103.118-.186.252-.275.383l-.49.074c-.25-1.218-.495-2.436-.756-3.652-.185-.435-.491-.807-.7-1.23.066-.102.146-.194.22-.289-.434-.031-.875-.017-1.295.107-.167.079-.294.24-.49.255-.152.047-.279-.095-.412-.144-.143.037-.286.076-.428.114-.064-.295.125-.493.345-.645-.174-.27-.496-.284-.784-.284a20.226 20.226 0 0 1-.047-.365c-.218-.057-.44-.11-.66-.16a101.42 101.42 0 0 0-.079-.334c.1-.116.202-.231.305-.346l-.085-.298.142-.159a54.148 54.148 0 0 1-.01-.353c-.185-.04-.369-.076-.553-.107-.123-.205-.243-.41-.366-.613-.356-.04-.66.142-.978.264-.407-.044-.805-.155-1.21-.219-.251-.03-.473-.157-.693-.273l-.287.235c-.607-.477-1.406-.552-2.148-.587-.265.005-.366-.302-.562-.435-.208.018-.33.203-.467.337.073.318.226.606.407.874-.089.08-.174.164-.271.235-.207-.028-.325-.296-.553-.28-.133-.014-.24.082-.355.134-.014.147-.031.295-.048.443-.205.014-.411.03-.616.048-.051.07-.102.142-.152.214.154.343.316.684.46 1.032-.153.21-.29.446-.525.575-.224-.004-.43-.12-.644-.179-.064-.108-.122-.22-.201-.316-.131-.029-.234.083-.347.128a.93.93 0 0 1-.57-.501c-.08-.2-.016-.418-.004-.623a3.843 3.843 0 0 1-.432-.324l-.17.188c-.11-.02-.22-.042-.33-.061a1.603 1.603 0 0 1-.122-.451c-.198-.081-.39-.2-.612-.198-.123.044-.228.125-.338.195l-.285-.196c-.047-.24-.085-.49-.23-.695-.15.086-.297.175-.445.266l-.18-.36c.247-.41.006-.867-.092-1.283a1.576 1.576 0 0 1-.444-.25c.044-.137.114-.273.113-.42a2.889 2.889 0 0 0-.22-.126 1.57 1.57 0 0 1-.445.19c-.122-.275-.255-.558-.209-.87-.34.098-.689.176-1.044.169a1.288 1.288 0 0 0-.257-.105c-.118.067-.22.155-.326.238a51.768 51.768 0 0 0-.493-.093c-.135.173-.23.372-.356.55-.122.075-.255.128-.383.19l-.208-.38a4.85 4.85 0 0 0 .111-.558l-.282-.262c-.371.085-.742.188-1.065.4l-.079.415c-.32.107-.64.213-.946.358.113.17.232.337.349.507-.179.169-.406.313-.478.563.265.02.427.218.558.427-.101.488-.154.986-.274 1.47a2.785 2.785 0 0 1-.291.078c.034.173.07.347.106.52-.638-.023-1.316.16-1.908-.156-.306.182-.65.259-1.005.215l-.318.25c.095.355.022.722 0 1.082-.24.263-.536.474-.748.761-.147.65-.238 1.315-.2 1.984l-.361.224c-.147-.056-.291-.113-.434-.172a1.81 1.81 0 0 1-.348.251c-.15-.187-.3-.373-.443-.564.08-.32.135-.658.085-.985-.11-.208-.274-.381-.386-.588-.05-.177-.041-.362-.056-.543l.195-.18c-.06-.252-.11-.541-.354-.68l-.03-.277c-.204-.098-.408-.196-.613-.291.049-.44-.197-.828-.159-1.265-.21-.252-.437-.489-.652-.735-.16-.153-.045-.406-.145-.587-.152-.277-.324-.542-.482-.815-.182.107-.327.059-.421-.123.05-.515.14-1.028.147-1.547-.04-.335-.158-.662-.12-1.006a.861.861 0 0 1-.337-.46c.063-.078.126-.155.19-.23l-.035-.55c.14-.13.282-.259.426-.385.133.233.27.465.403.7.25-.32.739-.29 1.074-.133.036-.256.062-.514.09-.77.224.205.45.408.666.62l.281-.206c.187.089.365.323.583.19-.27-.183-.556-.341-.834-.512.152-.16.303-.32.452-.484.303.034.605.076.908.115l.346.519c.17-.087.416-.097.503-.294.077-.131.148-.267.222-.399.22.006.352-.148.446-.328l.456.009c0-.252.054-.509.003-.756-.17-.39-.41-.745-.574-1.138-.046-.228-.026-.463-.038-.694a42.198 42.198 0 0 1-.59-.374l.018-.353c-.208-.047-.255-.231-.275-.415.116-.16.246-.308.348-.477.05-.18.053-.37.08-.553l-.268-.162c.006-.197-.022-.439.23-.472l.111-.21c.387-.108.575-.48.785-.788-.198-.116-.427-.098-.646-.077-.038-.242-.076-.51-.308-.642-.124.007-.247.013-.37.017l-.045-.444c.34-.27.718-.534.816-.988l.395.083-.03.317c.16.175.38.348.629.264.075-.141.152-.28.235-.418-.19-.598.144-1.158.45-1.643.131-.225.408-.282.594-.445.082-.108.14-.231.206-.349l-.075-.325-.375-.102-.068-.326.246-.307c-.255-.23-.234-.575-.242-.89.19-.12.378-.244.569-.362.01-.152.018-.303.026-.455l.41-.052c.107-.182.215-.364.32-.547.182.005.365.022.549.013.217-.295.468-.58.8-.747.223-.051.457-.038.677-.104.166-.085.312-.204.474-.296.23.13.373.428.677.404.06.107.106.226.198.312-.005-.283-.013-.565.007-.846.302-.114.6-.274.93-.272.352-.008.704-.038 1.056-.028.46.041.914.126 1.373.177.143.029.28-.038.4-.111.083-.47.12-.95.29-1.402.23.01.493.163.706.02-.035-.108-.08-.211-.124-.315.294-.172.427-.489.53-.798.3.055.542-.113.765-.29l.356.002c.306-.41.634-.802.94-1.21.267-.01.535-.014.802-.022.118-.207.262-.399.36-.615.018-.162.003-.327 0-.49.29-.161.572-.337.85-.519.315-.03.633.048.95.061.378-.015.64.3.944.476.24.126.322.396.441.62-.104.073-.21.146-.313.22-.1-.118-.18-.26-.32-.334-.068.394.165.716.364 1.025.36.617.155 1.344.197 2.017.045.336.176.653.23.987a4.848 4.848 0 0 1-.158.85 5.613 5.613 0 0 1-.588.803c-.26.066-.525.13-.792.14-.422-.232-.825-.501-1.24-.746-.038-.272-.056-.564-.243-.782-.229-.252-.182-.604-.215-.918-.003-.242-.159-.438-.23-.66-.012-.231.05-.459.044-.69l-.091.13c-.083.372-.117.753-.181 1.129-.028.261-.198.471-.316.697-.17.068-.366.094-.516.203-.263.301-.52.614-.71.969l.185.254c-.06.358.036.713.084 1.067l.378.208c.072-.1.144-.2.217-.298l-.285-.342c.068-.245.137-.488.207-.732.265-.032.531-.061.796-.092-.015.277-.06.553-.051.831.106.327.266.633.392.953l.22.122c.126-.325.259-.647.38-.974.253-.045.508-.096.765-.114.217.035.413.143.63.179.204-.011.406-.054.61-.081.143.286.296.566.44.852-.078.01-.234.034-.313.046.061.06.08.274.195.214.258-.202.49-.436.734-.655.187-.14.1-.419.224-.59.283-.23.63-.373.896-.624.092-.258.148-.529.222-.793.25.278.516.54.75.833.056.2.032.416.04.624.02.252-.177.441-.282.651-.184-.123-.366-.25-.546-.378-.158.051-.314.104-.472.156.041.124.082.25.125.375-.046.13-.09.259-.134.388l.407.393c.3-.169.584-.364.892-.519.09.06.168.135.254.203l.195-.193c.555.144 1.114.271 1.668.416.118.024.16.152.234.23.09-.106.18-.212.272-.316.259.061.517.121.776.185-.104.202-.206.404-.305.609l-.429.048.206.291c.275-.024.55-.05.826-.079.251.153.46.456.785.418.303.004.606.005.91.012-.002.143-.002.287-.002.432-.104.097-.208.196-.31.296l.194.123.142-.188c.24.08.434-.067.62-.195-.006-.297.02-.595.103-.881l.67.004c.32.39.736.708.958 1.17.19.37.421.717.64 1.07.244.336.191.79.423 1.136.162-.146.322-.294.482-.44-.092-.171-.201-.345-.21-.544.034-.143.087-.28.136-.42-.15-.157-.3-.313-.447-.47.012-.102.025-.203.04-.303l.515-.153.343-.619-.351-.469c.13-.124.252-.262.4-.367.198-.075.411-.098.61-.166.605-.39.85-1.179 1.516-1.488l.177.009a5.982 5.982 0 0 1 .02-.622c.2.017.401.032.603.047l.086.713c-.149.021-.299.04-.447.063.142.194.287.386.43.58-.098.347.004.801-.308 1.05-.144.138-.29.274-.434.413.059.263.145.54.022.801-.284.758-.62 1.494-.922 2.243-.134.293.14.628-.041.91-.182.33-.31.698-.528 1.005-.427.292-.858.63-1.374.734-.306-.118-.595-.277-.896-.405v.307c.464.286.927.576 1.39.864.137-.146.263-.305.419-.433.197-.108.424-.15.622-.258.248-.205.451-.46.683-.684.016-.31.03-.619.047-.928l.457-.444c.236.033.474.063.707.118l.162-.081-.21-.221c-.268-.003-.535-.003-.803-.003-.01-.277-.059-.554-.034-.83.222-.422.535-.792.738-1.223.026-.407-.033-.815.008-1.22.086-.176.207-.331.317-.492.246-.06.5-.173.63-.405.08-.174.136-.358.2-.538l.287-.121c-.037.32-.02.651-.095.965-.118.178-.263.334-.395.5.01.166.012.335.04.501.265.285.577.524.86.79.064-.433-.35-.657-.578-.955.059-.202.116-.404.177-.605.172.15.342.305.516.454l.136-.504-.334-.121c.084-.253.32-.369.542-.471.045.167.095.333.128.504l-.183.068c.242-.012.483-.015.726-.028l.574 1.083.54-.001c-.104-.395-.394-.673-.685-.934.021-.382.001-.767.047-1.146.064-.164.16-.313.249-.465.625-.019 1.24.079 1.852.196.223.06.448 0 .665-.057-.098-.186-.199-.37-.297-.557.064-.243.102-.494.19-.73.166-.184.356-.427.632-.392.433.065.661-.374 1.003-.548.314-.072.636-.095.954-.141-.001-.167-.004-.334-.004-.5.31-.001.62-.008.931-.016l.097.28c.175.03.35.062.526.091.085-.085.171-.168.259-.251l.388.087a.993.993 0 0 1-.218-.542c.238-.02.477-.034.716-.05-.03-.223-.216-.477-.057-.682.199-.293.383-.596.594-.88.144-.11.327-.144.493-.208.17.15.345.296.522.44-.066.112-.133.223-.197.337l.717.086c-.09.259-.18.517-.267.777l.247-.047c.11-.162.22-.321.338-.477.327.019.655.027.982.038.344.398.692.793 1.034 1.193-.098.332-.187.667-.281 1-.087.318-.282.588-.43.877-.156.267-.272.564-.491.787-.38.395-.76.79-1.137 1.188l-.02.298c.23-.34.7-.247.98-.519.458-.422 1.151-.5 1.52-1.034l.319.274.067.222c.128-.198.267-.388.404-.579.508-.006 1.015.008 1.523.011a4.294 4.294 0 0 0-.055.32c.14.115.293.21.442.313.444-.186.884-.378 1.325-.569l.112-1.234c.27.103.54.208.808.317.235-.078.47-.16.707-.235.189.112.435.162.56.36.22.332.446.661.654 1.002-.135.092-.269.185-.402.278.312.285.623.57.934.857.206.218.536.173.804.243.005-.522.002-1.045.002-1.568.358.06.715.126 1.073.187.061-.238.124-.476.193-.713.33.095.674.28 1.02.134-.033-.115-.075-.227-.115-.339.067-.092.135-.184.205-.275l.487-.119c-.198-.209-.382-.441-.346-.75l-.29.122c-.068-.137-.137-.273-.204-.41.141-.132.282-.266.424-.397-.1-.13-.203-.257-.305-.384.464-.245.931-.48 1.396-.725.272-.164.6-.114.903-.137-.208.232-.604.38-.575.745a.809.809 0 0 1 .715-.248c.001.207.001.413.004.62l.349-.33c-.088-.31-.182-.617-.261-.928.18-.151.357-.308.54-.458.327.032.655.056.982.074-.13.136-.27.263-.384.412l.127.164.208-.23.199.18c.087-.096.162-.208.266-.287.277-.075.574-.07.818.1.156.13.345.032.518-.004.115-.316.13-.686.363-.946.21-.243.377-.538.657-.71.238-.15.467-.317.713-.455.225-.007.465-.024.68.06.218.167.401.377.603.565.268-.164.567-.284.81-.486.196-.3.303-.653.514-.944.243-.219.522-.395.775-.603-.004-.363-.003-.725-.003-1.087.285.173.566.355.85.532.256-.189.568-.25.88-.263.016-.174.034-.346.053-.519-.18-.103-.36-.206-.538-.31-.148.027-.296.115-.445.095-.18-.191-.33-.408-.498-.608.335-.284.616-.693 1.085-.746-.003-.144-.065-.309.04-.433l.52-.854c.128-.231.403-.3.613-.433.87-.496 1.781-.92 2.6-1.502.357-.237.709-.48 1.07-.71.434.123.869.246 1.307.36.165.068.31-.07.459-.128-.284-.096-.56-.211-.835-.325.127-.175.274-.338.38-.528.06-.21.063-.432.092-.648zm-70.169 13.63l.019.524c-.26.323-.542.63-.782.967.103.208.378.077.56.132.084.087.148.192.232.281.147.015.295.004.443 0 .065-.169.207-.279.325-.408.085-.222.043-.469.049-.702.135-.143.184-.328.194-.521-.103-.112-.171-.302-.348-.298-.23-.054-.464-.018-.692.025zm3.118 1.089c-.233.286-.536.52-.713.85-.17.28.07.644-.146.912-.114.101-.246.177-.37.264.174.08.365.092.555.102.214-.184.24-.47.35-.712.2-.283.465-.512.688-.776.064-.127.096-.295.046-.43-.057-.172-.27-.154-.41-.21zm22.515 6.506c.075.183.137.37.2.559-.164.295-.332.59-.499.885.055.206.109.413.162.62.139-.03.278-.06.418-.085a1.478 1.478 0 0 1-.354-.447c.156-.192.312-.383.47-.572l-.001-.694a4.878 4.878 0 0 1-.311-.41c-.03.047-.058.095-.085.144zm17.634 19.23a24.374 24.374 0 0 1-.57 1.619c-.214.399-.51.753-.67 1.18-.09.356-.469.496-.647.795-.175.308-.492.48-.777.669-.198.088-.423.1-.615.21l.102.212c.488.065.937-.166 1.348-.401.261-.186.266-.52.318-.806.122.01.246.023.37.035.14-.167.23-.418.467-.462.403-.062.591-.51.612-.879a8.11 8.11 0 0 1 .247-.061l.079-.205c-.242-.44.43-.62.345-1.05-.1-.452-.173-.929-.064-1.387a2.12 2.12 0 0 0 .039-.637c-.056-.004-.167-.01-.223-.015-.316.307-.24.792-.361 1.183zm20.07-39.893a17.8 17.8 0 0 1 .688-.058c.093.129.186.257.282.384-.233.367-.31.795-.38 1.217-.014.163-.135.279-.23.4-.244-.298-.518-.574-.732-.896-.112-.41.166-.73.373-1.047zm-39.092 1.732c.223.104.41.35.674.322.188-.047.29.154.42.252-.057.064-.112.128-.166.192l.23-.146c.206.082.351.25.49.415-.105.11-.212.22-.318.328-.2-.07-.407-.14-.622-.12-.01.172-.04.34-.067.51l.208.093c-.006.122-.01.245-.015.367l-.305-.176c.021-.093.045-.185.069-.277a6.818 6.818 0 0 0-.534-.616l.03-.348c.252.1.514.089.77.004l-.19-.177-.322.032c-.24-.137-.319-.395-.352-.655zm1.433.573c.04-.08.078-.162.13-.235.12.092.23.197.341.299l-.227.235c-.084-.098-.164-.2-.244-.3zm2.036.154l.21-.145c.108.106.217.212.323.319-.09.057-.175.119-.268.168-.13-.077-.197-.214-.265-.342zm-.576.282l.392-.2.181.36-.205.3c-.175-.11-.36-.23-.368-.46zm-.843.47c.15-.108.294-.23.465-.307.176.149.377.286.501.482-.014.14-.036.279-.074.414a2.115 2.115 0 0 1-.537-.19c-.132-.12-.239-.264-.355-.399zm2.22-.027a14.7 14.7 0 0 1 .32-.218l.12.416c-.109.042-.218.082-.325.124l-.115-.322zm-2.481.058c.118.067.13.235.195.347-.073.054-.144.11-.215.165l-.043-.144c-.133.134-.257.276-.394.404-.093-.159-.186-.316-.277-.474.147-.08.294-.16.443-.238l.084.284c.077-.109.134-.231.207-.344zm1.776.242c.092.085.184.173.275.261l-.21.245-.325-.164c.085-.115.172-.228.26-.342zm.577.687l.244-.357c.079.13.158.261.239.391l-.241.402-.592.015-.075-.336.088-.199c.111.029.225.056.337.084zm-1.369.192c-.014-.263.207-.403.386-.549.13.06.269.107.395.18.057.117.092.243.136.366-.2.098-.398.197-.596.298l-.32-.295zm-.94-.375c.063-.02.188-.056.251-.075.055.08.11.159.167.238l.166-.197c.093.025.187.047.279.079a5.83 5.83 0 0 1-.08.392l-.324.16c-.067-.062-.132-.123-.196-.185-.186.159-.309-.045-.437-.163l.175-.249zm5.181 1.114a.634.634 0 0 1 .19-.65c.244.147.373.402.461.665-.216.056-.448.111-.65-.015zm-4.483-.463c.052.104.149.194.2.305-.069.08-.135.162-.208.238-.08-.092-.14-.199-.214-.294a7.36 7.36 0 0 1 .222-.25zm7.066.053c.165-.003.332-.01.499.001.08.183.126.379.185.569l-.733-.134c.015-.145.032-.291.049-.436zm.678.651c.258-.15.467-.362.686-.562.14.101.272.214.383.347.134.282.21.589.353.868l-.324.173-.015.318c-.288.133-.577.263-.863.396a.672.672 0 0 1-.441.54c-.194-.154-.503-.25-.522-.537-.08-.187.177-.216.28-.293.193.083.39.158.592.216-.121-.123-.26-.23-.365-.367-.08-.289.165-.49.311-.701l-.075-.398zm16.239.558l.362.115-.115.376c-.12-.03-.238-.06-.356-.093l.109-.398zm-20.673.532l.298-.12c.156.172.252.38.241.616l-.374-.002c-.145-.131-.268-.293-.165-.494zm4.741.48c.276-.133.55-.272.826-.406.049.192.101.384.164.572.054-.114.094-.235.147-.35.137.131.268.27.408.401.016.321-.065.628-.265.88.067.08.134.16.203.238l-.078.452c-.107.054-.213.11-.318.167-.294-.196-.591-.388-.85-.63a1.666 1.666 0 0 0-.544-.344c0-.353.179-.664.307-.98zm17.64.538c.097-.106.196-.212.296-.317.081.204.202.396.251.611-.1.237-.238.456-.36.682-.42-.012-.84-.004-1.26-.025-.074-.172-.15-.341-.225-.513l.349.016c.015-.088.031-.176.048-.263.091-.002.184-.003.277-.003.042-.074.085-.149.13-.223l.494.035zm-15.984.537c.194-.11.39-.216.585-.322-.004.196-.023.396.019.59.124-.074.228-.175.339-.268.117.166.266.314.352.5.006.24-.02.48-.028.719-.103.109-.203.223-.319.317-.19.059-.391.035-.583.077-.219.135-.404.317-.61.47-.05-.194-.132-.385-.138-.588.084-.204.217-.382.298-.586.061-.298.059-.606.085-.91zm13.397.305c.253-.29.633-.198.969-.173.237.29.183.666.175 1.014a7.378 7.378 0 0 1-.623-.133l-.241-.385-.174.014c.094.127.193.249.296.369.277.044.534.164.717.385l-.278.314a28.227 28.227 0 0 0-.31-.062l-.254.43-.306-.037.038.49c-.368.07-.737.022-1.086-.107-.055-.175-.091-.363-.208-.508-.291-.322-.187-.794-.163-1.188.197-.02.395-.048.595-.05.202.084.335.305.568.335a3.375 3.375 0 0 0-.286-.364c.01-.14.023-.28.037-.422.177.027.355.054.534.078zm9.583.188c.12-.023.24-.045.362-.066.034.127.069.254.106.382a.453.453 0 0 1-.564.02c.03-.112.063-.224.096-.336zm-35.858.644c.138-.083.28-.163.422-.241.21.156.378.43.665.434.286.028.572.048.859.066.029-.074.059-.148.09-.22.235-.062.472-.124.709-.183l.31.387-.085.532c-.302.137-.573.402-.925.373-.793.01-1.585.038-2.379.043-.122.137-.241.276-.36.415a37.1 37.1 0 0 1-.418-.092c-.074.064-.147.13-.22.195l-.246-.178a1.992 1.992 0 0 1-.255.525l-.21-.183-.05.2-.25-.089a3.429 3.429 0 0 0-.063.222c-.206-.048-.275.115-.352.265a.706.706 0 0 1-.662-.107l.08.233c-.082.116-.163.232-.243.349-.19.069-.394.11-.567.216-.157.15-.331.3-.427.499-.158.628-.17 1.283-.248 1.926a3.11 3.11 0 0 0-.658-.226l-.019-.245a35.978 35.978 0 0 0-.275-.035c-.097-.216-.193-.43-.283-.648.114-.11.227-.222.34-.334-.016-.166.011-.344-.056-.5-.091-.123-.208-.224-.314-.333.01-.157.02-.313.033-.47.135-.098.268-.197.4-.298.11.036.22.074.33.113.155-.08.318-.151.462-.253.029-.107.031-.219.047-.328.129.002.258.005.387.005.02-.14.041-.278.064-.417.19.078.379.156.569.236l.245-.254a32.262 32.262 0 0 1-.23-.216l.24-.299c.349.238.724-.02 1.077-.105l.046-.275.32-.007c.059-.236.111-.473.165-.71.11.113.217.227.324.342l.202-.152c.38.08.684-.147.972-.358.144.06.29.122.437.18zm14.523.455a1.938 1.938 0 0 1-.008-.482c.175.102.349.21.525.312.014.098.03.197.046.297-.188-.043-.376-.086-.563-.127zm9.66-.055c.16.094.33.175.476.294.115.157.193.337.283.51l-.305.112c-.254-.246-.435-.552-.454-.916zm-14.937 1.056c.061-.083.128-.16.2-.234.184.168.29.388.237.643-.168-.107-.465-.149-.437-.409zm17.6.02l.23-.21c.101.093.204.185.307.278-.021.16-.033.32-.063.478-.104.064-.238.026-.353.043a38.77 38.77 0 0 1-.122-.59zm.915-.073c.242.056.487.096.735.13.077.175.155.352.235.528a3.207 3.207 0 0 1-1.332.486c.022-.268-.083-.588.123-.805.08-.113.16-.225.239-.339zm-16.566.519l.4-.256.172.361-.252.145a56.29 56.29 0 0 1-.32-.25zm-45.28.085c.131-.06.252-.142.377-.215.087.269.179.535.273.802l.22.128.15-.61c.136.192.275.384.385.593.026.447-.03.897-.047 1.345-.247.122-.49.252-.734.38a268.58 268.58 0 0 1-1.12-2.446c.165.01.33.03.495.023zm45.224.254c.08.089.164.176.237.273-.06.078-.126.151-.191.226l-.19-.193c.047-.102.094-.204.144-.306zm14.09.18c.254.029.506.063.759.096l.031.419c-.145.018-.31.103-.44-.005-.213-.087-.263-.322-.35-.51zm-18.394.439c.107.002.214.007.322.01-.006.084-.012.167-.016.25-.065.066-.13.133-.193.2a38.02 38.02 0 0 1-.176-.25l.063-.21zm-24.378 1.01c-.196-.173-.134-.404.008-.586.156.09.235.246.272.42-.094.054-.188.11-.28.165zm23.75-.311c.106-.186.294-.262.492-.174.055.107.113.212.17.318l-.325.19c-.12-.102-.243-.205-.337-.334zm-12.37-.081l.351.08.015.413-.32.231c-.014-.241-.03-.483-.046-.724zm11.328.816c.094-.025.19-.05.284-.073l.08.338-.211.223-.199-.25.046-.238zm-14.662.25l.547-.195c.145.184.394.326.4.586a.829.829 0 0 1-.068.49c-.238.025-.477.003-.715-.006a24.634 24.634 0 0 0-.295-.395l.131-.48zm16.863.327c-.151-.132-.082-.28.059-.37l.31.24c-.052.066-.105.13-.156.196-.14.086-.203.237-.275.378l-.2-.128c.004-.113.008-.226.014-.337l.155.137.093-.116zm9.76.542c.056-.154.114-.307.173-.46.199.034.39.1.562.21-.066.21-.161.41-.273.6-.159-.113-.31-.232-.463-.35zm-10.71-.22l.272.069.07.308.177-.14.186.244c-.04.08-.08.16-.119.242l-.165-.1c-.033-.091-.064-.18-.103-.268l-.183.21c-.106-.079-.201-.17-.3-.256l.164-.309zm-3.643.637a2.52 2.52 0 0 1 .24-.107l.206.233c-.028.077-.055.153-.08.23l-.308-.047c-.023-.103-.046-.206-.058-.31zm13.775.128c.067-.186.27-.122.421-.129l.114.335-.495.307c-.145-.15-.189-.348-.04-.513zm-21.374.317l.536-.133c.119.349.169.715.123 1.084l-.44.043c-.1-.178-.224-.342-.29-.535.013-.155.045-.306.071-.46zm9.21.449c.068-.14.159-.268.242-.4.09.045.179.09.27.134l.062.575c-.09.036-.18.071-.269.108-.105-.137-.218-.27-.306-.417zm44.69.16c.25.03.483.13.71.238-.04.434-.06.87-.127 1.3l-.792-.9c.07-.213.14-.424.208-.637zm5.664 1.678c.303-.126.622-.3.957-.169-.196.173-.39.349-.6.503a3.41 3.41 0 0 1-.357-.334zm-1.151.416c.335-.139.713-.169 1.064-.068.121.088.166.251.248.376-.325.262-.724.11-1.091.063-.075-.123-.16-.24-.221-.37zm-92.333 7.334c.376.254.747.517 1.124.77.09-.066.178-.133.267-.2.134.105.265.212.399.318-.142.432-.293.86-.448 1.289.233.354.544.66.74 1.034-.112.164-.251.307-.38.458-.195-.12-.403-.221-.583-.362-.294-.297-.506-.668-.796-.97-.244-.064-.509.012-.76.01-.043-.24-.088-.479-.122-.72.141-.143.28-.29.417-.437l-.04-.895c.06-.099.12-.197.182-.295zm91.496 2.547c.118-.08.238-.159.358-.236.053.106.111.208.154.319-.041.124-.09.247-.138.369a36.758 36.758 0 0 1-.316-.204l-.058-.248zm.6-.03c.21.04.394.147.54.307.013.263.033.525.051.788-.113.051-.227.103-.338.157-.107-.14-.213-.279-.32-.416.018-.28.042-.558.067-.837zm.402 1.603c.193.086.387.173.582.258a9.66 9.66 0 0 0-.07.27c-.14.058-.277.119-.414.18a.904.904 0 0 1-.098-.708zm.282 2.466a2 2 0 0 1 .188-.328c.224-.016.28.218.38.37l-.321.307c-.081-.117-.165-.234-.247-.35zm.301.78l.322.072c-.017.144-.033.287-.048.432a17.97 17.97 0 0 0-.27.084l-.156-.28c.049-.105.101-.207.152-.309zm-.185 1.032c.081-.085.162-.17.246-.254l.311.103c.056.165.112.329.17.494-.185.047-.367.095-.55.144a59.78 59.78 0 0 1-.177-.487zm-.305 1.64c.098-.091.196-.183.295-.273.12.202.263.405.25.654.056.309-.095.593-.185.878-.112 0-.224.001-.333.003a36.678 36.678 0 0 1-.027-1.263zm-.443 1.55l.356.024c.018.13.06.26.052.394-.098.19-.244.352-.344.541-.064.397-.095.8-.162 1.196-.066-.048-.136-.094-.195-.146-.109-.426-.102-.868-.115-1.303.14-.147.283-.293.43-.434l-.022-.272zm-1.003 2.635c.188-.137.412-.313.64-.146a.807.807 0 0 1-.17.486c-.029.265-.017.535-.062.8a1.342 1.342 0 0 1-.202.105c-.205-.396-.008-.849-.206-1.245zm1.03.103c.078-.062.156-.122.237-.182.107.17.176.36.213.56-.122.037-.241.075-.362.111a2.259 2.259 0 0 1-.088-.49z"/></defs><g><g transform="translate(-383 -1750)"><use fill="#d30512" xlink:href="#21r4a"/></g></g></svg>